<svg width="288" height="337" viewBox="0 0 288 337" fill="none" xmlns="http://www.w3.org/2000/svg">
<path fill-rule="evenodd" clip-rule="evenodd" d="M281.746 209.212C278.226 209.558 274.707 209.903 271.187 210.249C254.331 211.537 237.481 214.228 220.754 215.843C220.338 215.165 219.523 215.276 219.028 215.747C217.358 215.601 215.488 214.325 213.976 215.653C213.927 215.646 213.878 215.637 213.828 215.633C211.136 210.464 209.275 204.951 207.469 199.43C206.316 196.036 204.765 192.75 201.899 190.472C197.008 187.075 185.801 180.187 180.058 180.477C179.963 179.448 179.484 178.388 178.696 177.703C180.431 174.744 173.495 172.814 173.006 173.157C173.319 163.272 168.671 154.688 158.423 152.719C149.241 150.805 136.182 150.484 131.244 160.083C130.701 160.022 125.153 159.993 124.616 160.053C123.781 158.995 114.615 169.017 118.372 172.506C84.7836 187.37 65.6853 185.596 56.3885 227.383C55.1317 231.308 55.0402 235.604 53.713 239.442C48.9914 250.471 45.1617 262.216 44.2086 274.217C41.9066 274.807 41.6419 278.868 44.3083 279.455C45.3268 279.68 46.1785 279.987 46.9211 280.568C46.3406 290.403 48.7183 312.87 50.2164 312.8C53.2711 322.526 66.8969 325.271 76.5434 321.853C74.8805 324.983 76.5434 326.951 76.5434 328.623C111.254 329.937 149.207 329.18 183.908 330.982C188.347 330.919 193.016 332.072 197.394 331.408C200.064 330.768 200.069 326.568 197.36 326.049L209.195 323.477C208.93 323.378 214.073 319.956 217.959 313.561C221.577 306.408 219.115 297.774 220.754 289.993C233.557 288.945 246.572 288.497 259.235 286.328C260.962 291.496 268.436 285.315 270.812 282.829C270.809 282.825 270.806 282.822 270.803 282.818C271.953 282.503 272.875 281.425 272.906 280.149C273.712 278.996 273.881 277.372 273.108 276.258C276.652 255.8 282.055 234.912 284.008 214.262C284.698 214.109 285.348 213.806 285.899 213.34L285.855 213.295C286.788 212.254 286.97 210.456 285.413 209.571C284.157 208.856 283.109 209.078 281.746 209.212Z" fill="white"/>
<path fill-rule="evenodd" clip-rule="evenodd" d="M131.884 157.853C132.93 155.224 136.465 156.246 136.071 159.008C135.835 160.663 134.929 162.41 134.116 163.861C133.453 165.041 132.697 166.193 131.673 167.078C133.497 168.78 135.39 170.42 137.331 171.978C139.449 173.677 141.677 175.243 143.979 176.682C145.998 177.945 148.108 179.063 150.011 180.504C151.781 181.843 153.393 183.454 154.213 185.556C155.087 187.795 154.707 190.107 154.064 192.345L153.99 192.598C153.332 194.815 152.194 197.487 153.772 199.575C154.576 200.638 155.743 201.391 156.752 202.241C157.648 202.997 158.489 203.819 159.261 204.701C160.943 206.625 162.311 208.789 163.174 211.201L163.252 211.421C163.992 213.556 164.533 216.172 163.533 218.268C163.246 218.869 162.32 218.673 162.16 218.088C161.796 216.763 161.815 215.375 161.511 214.03C161.194 212.632 160.666 211.305 159.977 210.049C158.644 207.621 156.839 205.546 154.707 203.792L154.068 203.272C152.404 201.906 150.876 200.457 150.538 198.197C150.177 195.778 151.145 193.474 151.768 191.185C152.202 189.589 152.344 188.06 151.875 186.618C151.302 187.554 150.52 188.442 149.902 189.235C148.67 190.813 147.427 192.382 146.187 193.953C144.915 195.565 143.675 197.202 142.494 198.881C141.966 199.633 141.444 200.388 140.923 201.145C140.531 201.714 139.985 202.282 139.558 202.862C139.662 203.172 139.654 203.529 139.466 203.783C137.202 206.843 133.981 200.458 133.141 198.845C131.431 195.56 130.158 192.07 128.441 188.786C126.663 185.381 124.638 182.067 122.381 178.959C121.016 177.079 119.486 175.313 118.237 173.373C115.294 176.042 111.423 177.831 107.867 179.453C103.959 181.236 99.9 182.692 95.8939 184.238L94.7105 184.698C87.8079 187.393 80.7367 190.354 74.9993 195.14C68.2574 200.765 64.2689 208.606 61.2995 216.724C57.8814 226.071 55.0535 235.669 52.4174 245.262C51.0684 250.17 49.7885 255.1 48.5852 260.046C47.5248 264.404 46.6459 268.805 45.4184 273.117C47.9078 273.029 50.747 273.993 52.8724 274.272C62.5588 275.54 72.1148 277.562 81.2599 281.063C82.3895 281.495 82.7163 282.624 82.4703 283.539C83.1218 283.355 83.7727 283.168 84.4242 282.985C83.7105 281.891 84.0511 279.935 84.1072 278.723L84.1107 278.639C84.1683 277.024 84.3436 275.406 84.4572 273.793C84.6736 270.719 84.9553 267.667 85.3298 264.61L85.4254 263.845C85.8498 260.52 86.1636 257.174 86.6267 253.854L86.6814 253.474C86.4594 252.625 86.2008 251.786 85.9294 250.95C85.2063 248.725 84.1856 246.63 83.2911 244.475C83.1856 244.221 83.547 244.075 83.7158 244.228C85.2307 245.591 86.434 247.32 87.4007 249.129C87.4174 249.044 87.4322 248.958 87.4497 248.873L87.56 248.33C87.832 247.005 88.1629 245.612 88.9752 244.537C89.0617 244.423 89.2327 244.399 89.3146 244.537C90.092 245.853 90.179 247.52 90.2985 249.017C90.4338 250.711 90.4508 252.427 90.4269 254.125C90.3803 257.445 90.1464 260.774 89.9601 264.088C89.7773 267.345 89.4183 270.56 88.9556 273.785L88.8677 274.39C88.6415 275.925 88.4564 277.479 88.1581 279.004L88.0738 279.419C87.9143 280.175 87.8162 281.24 87.4988 282.126C95.6666 279.847 103.847 277.62 112.043 275.432C117.966 273.85 123.896 272.293 129.824 270.725C130.136 270.161 130.526 269.634 131.012 269.163C132.613 267.612 134.735 266.92 136.682 268.114C136.84 268.211 136.853 268.459 136.682 268.553C136.309 268.757 135.935 268.966 135.568 269.184L139.127 268.22C141.788 267.499 144.48 266.598 147.203 266.095C152.218 263.619 157.612 261.827 162.895 260.056L163.517 259.845C166.222 258.922 169.02 257.89 171.815 257.378C173.861 257.004 176.263 257.456 177.085 259.552C178.127 260.239 179.107 261.046 180.053 261.84C180.737 262.413 181.392 263.023 182.058 263.617L182.181 263.725C182.726 264.198 183.158 264.515 183.292 265.267C183.361 265.656 183.114 266.182 182.634 266.13C181.167 265.973 179.975 264.272 178.98 263.257C178.211 262.472 177.437 261.66 176.735 260.797C176.326 261.02 175.766 260.98 175.506 260.487C174.156 257.93 170.458 259.702 168.413 260.308L165.482 261.176C164.017 261.61 162.552 262.047 161.09 262.491C157.071 263.712 153.072 265.078 149.017 266.199C149.38 266.598 149.33 267.308 148.641 267.578C145.467 268.824 141.985 269.468 138.687 270.323C136.605 270.863 134.524 271.407 132.444 271.953C132.088 272.531 131.831 273.185 131.723 273.947C131.326 276.745 132.092 279.974 132.837 282.681L132.95 283.085C133.563 285.262 134.465 287.929 136.341 289.304C136.8 289.639 137.383 289.872 137.971 289.925C141.645 288.033 145.319 286.141 148.996 284.253C149.677 283.903 150.306 284.377 150.459 284.94C151.755 284.727 153.048 284.392 154.226 283.992C156.205 283.319 157.751 282.037 159.606 281.15C163.197 279.434 166.863 281.542 170.077 283.144L170.818 283.508C172.26 284.208 175.259 285.552 175.95 283.638C176.619 281.787 174.504 279.809 173.138 278.975C171.51 277.982 169.614 277.45 167.774 277.008C166.723 276.755 165.66 276.548 164.59 276.397C163.376 276.227 162.122 276.252 160.954 275.858C160.373 275.663 160.284 274.741 160.954 274.588C162.753 274.179 164.9 274.625 166.777 275.082L167.758 275.324C169.649 275.788 171.559 276.371 173.281 277.297C174.534 277.97 175.856 278.994 176.72 280.246C177.47 279.549 178.403 279.573 179.376 279.831L179.903 279.978C180.775 280.22 181.481 280.386 182.329 280.219C182.443 279.601 182.558 278.984 182.681 278.367C183.889 272.297 185.214 266.251 186.677 260.238C189.199 249.865 192.118 239.606 195.408 229.452L195.739 228.437C196.498 226.114 197.108 223.584 198.332 221.45C199.489 219.433 201.343 218.271 203.546 217.655C206.046 216.957 208.672 216.592 211.223 216.12C211.791 216.015 212.362 215.915 212.931 215.812C212.45 214.943 212.091 213.956 211.767 213.199L211.711 213.068C211.016 211.483 210.391 209.869 209.788 208.247L209.337 207.027C208.249 204.09 207.125 201.201 205.595 198.455C203.984 195.564 201.846 193.2 199.182 191.244C193.75 187.256 187.203 185.221 181.935 180.959C181.719 180.784 181.996 180.485 182.215 180.596C185.772 182.384 189.612 183.6 193.313 185.056L194.043 185.344C196.967 186.504 199.937 187.766 202.469 189.644C205.291 191.738 207.514 194.338 209.184 197.431C210.831 200.479 211.884 203.891 213.045 207.146L213.356 208.014C213.825 209.315 214.309 210.612 214.863 211.878C215.303 212.883 216.125 214.03 216.498 215.178C217.52 215.001 218.541 214.823 219.564 214.652C241.714 210.952 264.112 208.779 286.56 208.143C287.438 208.118 287.892 208.956 287.763 209.723C285.609 222.466 283.694 235.253 281.594 248.006C280.677 253.572 279.742 259.133 278.785 264.692C278.3 267.509 277.739 270.314 277.28 273.135C276.909 275.413 276.64 277.708 276.004 279.933C275.433 281.928 274.557 283.852 273.118 285.374C271.567 287.015 269.403 287.809 267.224 288.185C261.693 289.137 256.019 289.526 250.443 290.16L220.756 293.539C221.189 297.484 221.222 301.367 221.023 305.358L220.909 307.537C220.817 309.289 220.706 311.044 220.454 312.778C220.139 314.954 219.144 316.796 217.679 318.421C216.333 319.913 214.698 321.186 213.108 322.406C211.458 323.673 209.753 324.896 207.812 325.68L207.56 325.78C205.858 326.444 202.664 327.474 200.337 327.098C200.641 328.622 201.23 330.262 200.708 331.77C200.466 332.471 199.551 332.82 198.99 332.224C197.878 331.043 197.791 329.482 197.528 327.941C197.254 326.338 197.018 324.728 196.808 323.115C196.403 319.995 196.087 316.847 195.991 313.702C195.892 310.471 195.93 307.236 196.104 304.009C196.193 302.352 196.304 300.695 196.514 299.049C196.604 298.346 196.696 297.644 196.801 296.943C196.839 296.688 196.881 296.433 196.927 296.18L194.262 296.48C190.176 296.937 186.089 297.349 181.974 297.413C181.487 297.42 181.112 297.198 180.867 296.875C180.606 297.3 180.151 297.605 179.5 297.602C173.754 297.581 168.403 295.701 163.177 293.486C160.542 292.369 157.949 291.16 155.311 290.052C152.848 289.019 150.215 288.281 147.812 287.117L141.497 290.43C141.451 290.593 141.392 290.747 141.329 290.876C140.917 291.716 140.107 292.171 139.279 292.514C138.484 292.844 137.661 292.947 136.859 292.864C132.07 295.374 127.28 297.882 122.487 300.385L117.692 302.885C108.139 307.861 98.6246 312.918 89.0119 317.777L88.3042 318.133C84.9839 319.799 81.4187 321.487 77.734 322.747C77.6684 323.68 77.7098 324.587 77.788 325.575L77.8068 325.79C77.9166 326.957 78.1522 328.419 77.2164 329.25C76.7296 329.682 75.86 329.684 75.529 329.032C74.9283 327.851 75.4676 325.988 75.6579 324.705C75.7254 324.249 75.8078 323.779 75.9295 323.324C71.7054 324.582 67.3533 325.192 63.0547 324.486C58.8695 323.799 55.628 321.161 53.0149 317.935C50.257 314.53 48.2973 310.563 47.2458 306.31C46.0491 301.47 45.971 296.472 45.9991 291.514C46.0289 286.235 46.2241 280.93 46.866 275.687C46.1628 275.521 45.3829 275.378 44.6723 275.428C44.3203 275.991 43.6376 276.228 43.0207 276.155C41.6791 277.635 45.082 279.148 46.1694 279.527C46.547 279.658 46.5066 280.272 46.0711 280.253L45.7967 280.24C44.1164 280.151 42.3804 279.864 41.3924 278.302C40.6007 277.05 40.8386 275.566 41.7823 274.545C42.4057 268.649 43.8959 262.908 45.2828 257.156C46.6439 251.511 48.1575 245.902 49.7619 240.321L50.4811 237.823C53.0071 229.072 55.6474 220.251 59.1317 211.848C60.8716 207.653 62.876 203.534 65.5929 199.876C68.1255 196.465 71.1155 193.547 74.5525 191.055C80.9597 186.408 88.4779 183.6 95.8648 180.925L96.1955 180.805C100.024 179.42 103.842 178.018 107.627 176.517C110.974 175.19 114.18 173.507 117.511 172.16C117.403 171.963 117.299 171.764 117.198 171.564L117.136 171.615C117.126 171.624 117.115 171.632 117.104 171.639C116.769 171.872 116.276 171.758 116 171.497C115.22 170.761 115.484 169.944 116.004 169.181L116.072 169.084C116.708 168.192 117.276 167.249 117.863 166.325L118.231 165.747C119.217 164.203 120.253 162.649 121.568 161.373C122.177 160.782 122.843 160.339 123.549 160.01C123.489 159.882 124.018 159.621 124.168 159.752C126.406 158.933 128.98 159.105 131.419 159.331M219.319 293.702L216.209 294.056C212.786 294.446 209.363 294.822 205.939 295.195L198.502 296.004C198.483 296.428 198.432 296.843 198.422 297.163C198.374 298.814 198.338 300.466 198.303 302.118C198.235 305.429 198.31 308.743 198.528 312.048C198.739 315.25 199.017 318.453 199.449 321.633L199.538 322.269L199.589 322.603C199.942 322.637 200.289 322.805 200.577 323.149C201.206 323.901 203.483 323.17 204.373 322.854C205.836 322.333 207.213 321.453 208.484 320.571C209.726 319.709 210.844 318.705 211.918 317.647L212.796 316.777C213.671 315.908 214.546 314.982 215.081 313.889C215.808 312.407 215.902 310.587 216.115 308.972C216.377 306.986 216.689 305.001 217.019 303.025M129.02 272.856L128.698 272.941C116.977 276.057 105.274 279.264 93.5181 282.242C87.7002 283.716 81.8547 285.083 76.0297 286.528L75.0866 286.764C70.4913 287.926 65.8408 289.325 62.3218 292.659C62.1919 292.782 62.0033 292.593 62.1256 292.463C65.9181 288.424 71.3121 286.714 76.4911 285.232C77.4484 284.958 78.407 284.69 79.3645 284.418C72.3212 281.906 65.1666 279.721 57.8469 278.162C55.9621 277.761 54.0554 277.466 52.172 277.063C50.8585 276.782 49.5758 276.375 48.2762 276.038L47.254 275.781L47.2404 279.013C47.2234 283.591 47.2315 288.165 47.465 292.742L47.5092 293.59C47.7816 298.683 48.2067 303.883 50.0136 308.685C51.4819 312.588 53.8222 316.265 56.8827 319.108C58.4313 320.546 60.0963 321.666 62.1544 322.218C64.0654 322.731 66.0675 322.792 68.0319 322.655C77.4546 321.997 85.8423 316.877 94.0273 312.637C107.415 305.703 120.805 298.772 134.206 291.864C133.844 291.616 133.503 291.33 133.193 291.01C131.395 289.153 130.448 286.611 129.825 284.15C129.162 281.53 128.766 278.721 128.72 276.016M146.073 294.541C146.191 294.477 146.328 294.557 146.333 294.69C146.375 295.714 145.809 296.724 145.387 297.647L145.342 297.745C144.828 298.888 144.266 300.015 143.685 301.125C142.523 303.342 141.315 305.535 140.054 307.697C137.52 312.047 134.703 316.214 131.373 320.001C130.621 320.857 129.385 319.76 129.867 318.838C132.194 314.398 134.906 310.204 137.699 306.048C139.096 303.967 140.493 301.884 141.905 299.812C142.494 298.948 143.09 298.086 143.702 297.238L144.072 296.731M285.075 210.686C273.314 211.041 261.567 211.809 249.861 213.011C238.975 214.13 228.129 215.618 217.344 217.474C215.092 217.861 212.842 218.265 210.595 218.684L209.247 218.938C207 219.364 204.254 219.54 202.253 220.741C200.144 222.007 199.574 224.653 198.872 226.835C198.046 229.402 197.242 231.975 196.459 234.555C193.352 244.799 190.513 255.131 187.981 265.532C186.724 270.694 185.608 275.886 184.433 281.067C183.389 285.67 182.237 290.222 181.034 294.779C181.182 294.664 181.364 294.576 181.583 294.529C187.56 293.257 193.661 292.704 199.727 292.002L200.314 291.933C206.589 291.195 212.864 290.462 219.143 289.756L260.714 285.079C263.165 284.803 265.792 284.766 268.178 284.108C272.234 282.988 273.185 278.451 273.866 274.838L273.886 274.729C275.938 263.813 277.572 252.801 279.485 241.857M182.001 282.089C180.387 281.983 178.178 280.504 176.954 280.61C177.596 281.689 177.887 282.92 177.516 284.234C176.485 287.891 171.822 285.999 169.577 284.882C167.735 283.965 165.957 282.844 163.918 282.414C161.609 281.929 160.044 282.847 158.093 283.906C156.49 284.776 154.745 285.401 152.95 285.724C151.996 285.896 151.089 285.914 150.185 285.847C150.13 285.892 150.069 285.933 149.999 285.969L149.52 286.221C151.684 286.32 153.889 286.988 155.903 287.6C157.99 288.233 160.039 288.997 162.077 289.779L164.082 290.549C169.028 292.444 174.148 294.243 179.5 294.228C179.885 294.227 180.2 294.333 180.448 294.507M172.971 270.63C174.566 270.435 176.037 270.644 177.311 271.682C178.848 272.934 179.88 275.011 182.089 275.147C182.733 275.187 182.883 276.093 182.243 276.282C180.598 276.769 179.267 275.879 178.147 274.724L177.394 273.937C176.287 272.79 175.266 271.903 173.387 271.972C171.375 272.045 169.36 272.51 167.362 272.747C165.097 273.015 162.834 273.243 160.562 273.44C160.457 273.449 160.439 273.283 160.538 273.259L163.082 272.625M171.432 264.109L171.695 264.083C174.011 263.858 176.128 263.849 178.196 265.095L178.593 265.335C180.457 266.468 182.486 267.804 183.652 269.639C183.843 269.94 183.528 270.293 183.208 270.217C180.968 269.679 179.329 268.034 177.445 266.803C175.33 265.422 173.146 265.65 170.735 265.864C168.4 266.072 166.066 266.358 163.755 266.747C161.583 267.112 159.403 267.689 157.209 267.873L157.21 267.869C156.959 267.868 156.816 267.492 157.072 267.364C159.298 266.252 161.877 265.725 164.299 265.217M92.1491 201.125C92.1462 200.942 92.4037 200.874 92.4937 201.032C94.0002 203.684 94.7877 206.934 95.5902 209.855C96.4307 212.915 97.1093 216.006 97.7188 219.12C98.9535 225.425 99.6113 231.694 99.6559 238.12C99.6621 239.038 98.1679 239.282 98.0218 238.341C97.0514 232.091 96.1216 225.833 95.1439 219.584C94.6519 216.441 94.0793 213.31 93.5314 210.176M107.063 205.744C106.952 205.378 107.484 205.256 107.62 205.59C110.644 213.014 111.668 221.428 109.727 229.26C109.43 230.458 107.675 229.939 107.899 228.756M146.06 199.147C146.045 198.873 146.4 198.83 146.534 199.018C147.967 201.038 148.561 203.742 151.074 204.785C152.329 205.306 153.741 205.215 154.85 206.096C155.591 206.684 156.159 207.613 155.603 208.505C155.424 208.793 154.921 208.937 154.678 208.624C154.322 208.168 154.134 207.622 153.652 207.28C152.97 206.798 152.052 206.768 151.271 206.542C150.261 206.249 149.371 205.736 148.642 204.975M169.993 165.469C170.141 165.393 170.282 165.441 170.377 165.569C170.512 165.751 170.495 165.928 170.33 166.053C170.551 166.504 170.811 167.634 170.848 167.798C170.999 168.465 171.16 169.128 171.327 169.79C171.666 171.126 171.963 172.472 172.302 173.808C172.661 175.224 173.089 176.626 173.566 178.007C173.596 178.096 173.63 178.187 173.666 178.28L173.72 178.42L173.733 178.399C173.83 178.246 174.032 178.353 174.008 178.514C173.986 178.662 173.956 178.809 173.931 178.956L173.981 179.088C174.292 179.927 174.506 180.811 173.934 181.551C173.72 181.828 173.485 181.992 173.191 182.041C172.721 183.592 172.131 185.114 171.499 186.576L171.314 187.003C170.385 189.136 169.394 191.241 167.914 193.056C166.299 195.039 164.077 196.393 162.67 198.565C162.015 199.575 161.559 200.638 161.19 201.779L161.051 202.212C160.788 203.019 160.485 203.802 159.729 204.275C159.487 204.426 159.125 204.378 158.931 204.172C157.378 202.53 159.003 199.463 159.939 197.873C161.24 195.661 163.123 194.247 165.008 192.578C167.04 190.78 168.337 188.374 169.591 186.005C170.359 184.553 171.1 183.07 171.881 181.611C171.065 180.89 170.804 179.458 170.528 178.462L170.503 178.373C170.046 176.779 169.683 175.143 169.454 173.5C169.233 171.92 169.141 170.363 169.199 168.775L169.216 168.37M173.025 172.987C172.845 172.74 173.143 172.46 173.391 172.512C174.894 172.823 176.363 173.733 177.712 174.469L177.856 174.547C178.933 175.128 180.017 175.839 180.582 176.968C181.197 178.195 181.147 179.607 181.063 180.94L181.055 181.065C180.952 182.664 180.935 184.325 180.597 185.894C180.424 186.698 179.697 186.924 179.075 186.734C178.335 189.071 176.257 190.794 174.738 192.638C172.802 194.989 173.167 198.164 173.369 200.996C173.451 202.142 172.025 202.468 171.291 201.857L169.599 200.451C169.317 200.216 169.036 199.981 168.755 199.745C168.515 199.542 168.276 199.338 168.04 199.132L167.687 198.82C167.531 198.68 166.84 197.909 166.638 197.877C166.149 197.799 164.988 199.088 164.59 199.492L164.54 199.543C163.792 200.277 163.116 201.067 162.486 201.904C162.37 202.058 162.143 201.93 162.226 201.753C162.79 200.543 163.447 199.387 164.226 198.305L164.383 198.09C164.901 197.391 165.597 196.157 166.512 195.951C167.629 195.699 168.745 196.82 169.558 197.442L169.609 197.481C169.996 197.771 170.378 198.066 170.76 198.364C170.72 196.255 170.986 194.125 172.074 192.308C172.842 191.026 173.991 190.077 174.975 188.976C176.07 187.75 176.642 186.243 177.633 184.966C177.761 184.801 177.937 184.713 178.127 184.685C178.165 183.658 178.317 182.621 178.433 181.606L178.467 181.302C178.585 180.198 178.864 178.851 178.324 177.817C177.814 176.841 176.644 176.152 175.777 175.49L175.069 174.941M124.244 161.319C123.791 161.581 123.368 161.907 122.984 162.314C121.776 163.596 120.913 165.191 120.072 166.726C119.62 167.553 119.183 168.388 118.727 169.213C118.529 169.572 118.325 169.926 118.118 170.281C118.023 170.444 117.74 170.769 117.599 170.968C117.755 171.187 117.917 171.403 118.081 171.616C118.144 171.697 122.477 176.419 123.988 178.268C126.301 181.099 128.368 184.089 130.136 187.289C131.867 190.424 133.184 193.742 134.788 196.937C135.59 198.536 136.486 200.125 137.629 201.509C137.673 201.563 137.719 201.614 137.765 201.667C138.201 200.489 139.318 199.227 139.866 198.503L139.918 198.434C141.162 196.756 142.476 195.128 143.819 193.528C145.046 192.067 146.303 190.638 147.591 189.232L148.076 188.706C148.973 187.736 150.113 186.285 151.427 185.592C151.286 185.341 151.123 185.093 150.936 184.848C149.705 183.239 147.965 182.071 146.248 181.017L145.135 180.34C140.938 177.781 136.806 175.104 133.163 171.779C131.235 170.02 129.334 168.177 127.713 166.126L127.14 165.4M131.247 160.053C129.281 160.218 127.159 160.179 125.342 160.819C126.957 162.346 128.492 163.995 130.069 165.548C130.209 164.498 130.496 163.46 130.739 162.436" fill="black"/>
<path fill-rule="evenodd" clip-rule="evenodd" d="M151.348 62.9408C165.343 62.9408 179.818 73.7931 184.949 80.7182C189.262 86.5405 191.584 112.869 191.584 130.662C191.584 134.383 193.637 141.398 193.038 144.957C190.843 158.001 181.279 168.94 162.349 168.94C143.42 168.94 129.848 161.434 115.779 141.281C108.952 141.281 105.643 136.044 105.595 127.779C105.547 119.514 112.185 116.507 112.185 116.507C112.185 116.507 109.818 83.8901 115.779 75.3983C121.739 66.9065 137.352 62.9408 151.348 62.9408Z" fill="white"/>
<path fill-rule="evenodd" clip-rule="evenodd" d="M145.459 58.3289C154.295 57.4338 162.954 58.1859 171.662 59.742C172.328 59.8626 172.705 60.2993 172.845 60.8242C176.947 61.0116 181.053 61.3127 185.149 61.5371C186.636 61.6185 187.478 63.0878 186.801 64.4146C186.665 64.6782 186.525 64.9346 186.382 65.1911L186.561 65.1318C187.793 64.7364 189.125 64.5414 190.325 65.1691C191.853 65.968 192.453 67.7308 192.115 69.3533C192.028 69.7675 191.883 70.1645 191.718 70.5519C192.053 70.5297 192.391 70.5371 192.726 70.5815C194.511 70.8182 195.837 72.1867 195.93 74.0089C196.068 76.7604 194.296 79.5519 192.209 81.5218C192.511 82.1458 192.628 82.8806 192.502 83.6253C192.25 85.0974 191.166 85.9789 189.91 86.5539C190.434 88.2185 190.681 89.9588 190.535 91.7374C190.486 92.3311 189.967 92.8216 189.419 92.9419C191.462 98.5673 192.495 104.607 193.239 110.492C193.769 114.679 194.03 118.891 194.062 123.109C194.077 125.014 194.046 126.921 193.966 128.826L193.934 129.54C193.835 131.599 193.83 133.761 193.461 135.798C194.723 137.946 195.23 140.611 195.445 143.018C195.711 145.996 195.29 149.069 194.35 151.902C190.806 162.608 180.109 169.364 169.365 171.12C159.419 172.745 147.911 170.558 142.099 161.521C142.008 161.378 142.203 161.26 142.316 161.353C146.474 164.736 151.298 166.245 156.538 166.98C165.599 168.247 175.783 166.097 183.054 160.397C186.544 157.66 189.061 153.675 190.168 149.387C190.732 147.195 190.927 144.909 190.705 142.653C190.478 140.365 189.465 138.412 188.827 136.249C188.612 135.519 188.839 134.841 189.285 134.358C189.411 132.602 189.707 130.832 189.82 129.081C189.946 127.091 190.022 125.101 190.049 123.109C190.101 118.977 189.929 114.837 189.581 110.721C188.945 103.186 187.257 95.8332 186.266 88.3618C185.899 88.6909 185.373 88.8261 184.822 88.5385L184.765 88.5072L184.464 88.3349C184.447 88.3349 184.427 88.3374 184.41 88.3396C182.352 88.5395 180.217 88.2535 178.246 87.6393C176.182 86.9985 174.267 86.0121 172.557 84.6979C172.231 86.3472 172.096 88.0141 172.093 89.6957C172.091 90.7462 170.979 91.2913 170.097 90.8426C166.185 88.8549 162.449 86.5645 158.902 83.9902C158.488 86.1132 158.074 88.236 157.657 90.3615C157.497 91.1804 156.454 91.5108 155.786 91.1212C153.129 89.5749 150.835 87.5508 148.966 85.144C148.593 85.8575 148.219 86.571 147.843 87.2829L147.275 88.3494C146.716 89.3974 145.967 90.5565 144.742 90.8916C143.445 91.2467 142.363 90.4061 141.927 89.2322C141.794 88.8675 141.671 88.4925 141.557 88.1152C140.453 90.6379 139.206 93.1037 137.796 95.456C135.681 98.9842 133.142 102.128 130.611 105.353C129.842 106.332 128.526 105.398 128.42 104.446C128.358 103.886 128.306 103.324 128.262 102.764C126.787 105.742 125.248 108.692 123.571 111.556L123.811 112.497C124.503 115.278 125.078 118.079 125.702 120.874C125.904 121.776 125.425 123.066 124.371 123.219C123.113 123.403 121.922 124.046 120.633 123.604C119.227 123.121 118.949 121.905 118.286 120.753C118.153 120.524 117.999 120.313 117.834 120.113L117.792 120.168C117.688 120.303 117.442 120.155 117.503 120L117.575 119.821C117.005 119.215 116.323 118.71 115.696 118.167C114.205 117.916 112.528 118.191 111.501 118.797C109.162 120.177 108.088 123.023 108.066 125.639C108.038 128.702 108.987 132.144 110.589 134.763C111.294 135.914 112.261 136.954 113.537 137.465C114.804 137.973 116.177 137.815 117.466 138.293C118.319 138.612 118.844 139.558 118.329 140.416C118.294 140.476 118.255 140.53 118.218 140.587L118.601 141.096C118.865 141.448 119.14 141.826 119.396 142.219C120.052 142.974 120.742 143.701 121.41 144.443C122.645 145.811 123.843 147.217 125.058 148.605C126.204 149.915 127.417 151.145 128.666 152.355C129.847 153.502 131.321 154.466 132.405 155.689C133.46 156.883 133.746 158.966 132.011 159.657C130.091 160.423 128.391 158.628 127.099 157.431L127.044 157.381C124.675 155.2 122.536 152.707 120.837 149.963C119.154 151.109 116.72 151.219 115.044 150.073C114.162 149.47 113.485 148.457 113.157 147.355C112.847 147.424 112.537 147.465 112.235 147.46C112.079 147.55 111.923 147.638 111.765 147.72C110.515 148.371 108.98 148.08 108.408 146.697C107.887 145.441 108.424 144.014 108.893 142.804L108.99 142.554C109.256 141.864 109.549 141.112 109.914 140.404C108.899 139.64 108.031 138.69 107.297 137.611C104.829 133.974 103.597 128.655 104.142 124.315C104.469 121.697 105.699 118.984 107.713 117.218L107.639 117.026C107.075 115.594 106.562 114.156 106.229 112.642C105.84 110.872 105.65 109.037 105.478 107.235C105.113 103.428 105.211 99.5343 105.697 95.742C106.609 88.6037 108.921 81.596 113.025 75.656C111.861 74.2626 110.94 72.6229 111.42 70.7368C111.64 69.8711 112.14 69.0502 112.894 68.5544C113.31 68.2809 113.806 68.239 114.223 68.0122L114.348 67.9432C114.531 67.8364 114.391 67.8477 114.282 67.3513C113.85 65.3686 114.208 63.453 116.389 62.7946C118.442 62.1757 120.385 63.49 121.6 65.0557C124.779 62.7993 128.969 61.6185 132.654 60.6149C136.844 59.4779 141.143 58.768 145.459 58.3289ZM111.114 124.83C111.099 123.215 112.63 122.219 114.136 122.483C115.147 122.659 115.991 123.263 116.783 123.887L117.17 124.193C118.134 124.951 119.242 125.768 119.817 126.84C120.66 128.423 118.878 130.553 117.215 129.444C116.073 128.679 115.342 127.453 114.593 126.314L114.516 126.196C114.176 125.686 113.877 125.144 113.411 124.734L113.31 124.646C113.157 124.515 112.993 124.396 112.795 124.34C112.413 124.23 111.706 124.384 111.538 124.838L111.523 124.885C111.462 125.114 111.117 125.065 111.114 124.83Z" fill="black"/>
<path fill-rule="evenodd" clip-rule="evenodd" d="M174.969 147.185C173.296 147.843 171.319 147.998 169.593 147.438C167.942 146.902 166.442 145.709 165.535 144.208C164.727 142.872 164.39 141.286 164.867 139.705C164.89 139.629 164.964 139.581 165.036 139.562C165.427 139.917 165.668 140.271 165.909 140.622C166.316 141.215 166.723 141.802 167.282 142.309C168.096 143.046 169.193 143.645 170.281 143.843C171.346 144.037 172.437 143.865 173.391 143.355C173.971 143.045 174.44 142.631 174.904 142.214C175.41 141.761 175.908 141.3 176.605 141.044C177.163 140.839 177.749 141.012 178.2 141.356C178.684 141.724 179.032 142.302 179.013 142.906C178.983 143.841 178.573 144.622 177.98 145.266C177.177 146.136 176.041 146.763 174.969 147.185ZM172.983 123.871C174.844 125.003 177.68 127.642 175.678 130.448C173.321 132.922 169.928 130.085 168.255 128.803C166.705 127.808 164.963 130.365 166.401 131.526C178.485 140.476 183.388 124.167 173.924 122.541C172.882 122.361 172.495 123.521 172.983 123.871ZM153.406 108.189C155.943 108.068 158.178 109.208 160.596 109.726C162.83 110.204 165.031 109.917 167.203 109.308C170.73 108.319 172.187 113.719 168.709 114.772C166.176 115.538 163.51 115.591 160.91 115.196C158.602 114.845 156.666 113.721 154.465 113.066C152.576 112.505 150.353 112.738 148.358 113.002L147.584 113.107C146.433 113.262 145.276 113.417 144.136 113.642C143.147 113.838 142.16 114.196 141.151 114.237C141.036 114.242 140.939 114.093 141.011 113.994C142.184 112.384 144.443 111.113 146.241 110.266L146.363 110.208C148.582 109.174 150.935 108.307 153.406 108.189ZM152.476 120.063L152.476 120.008C152.479 118.436 153.395 114.845 155.657 114.845C157.071 114.845 157.929 117.289 158.078 119.807L158.083 119.91C158.148 121.476 157.719 124.899 155.657 124.899C153.574 124.899 152.497 121.657 152.476 120.063ZM185.789 120.063L185.789 120.008C185.786 118.436 184.871 114.845 182.608 114.845C181.23 114.845 180.379 117.168 180.2 119.619L180.188 119.807C180.098 121.32 180.5 124.899 182.608 124.899C184.691 124.899 185.768 121.657 185.789 120.063ZM185.755 106.274L185.916 106.278C188.561 106.37 191.28 107.937 191.986 110.569C192.023 110.705 191.855 110.797 191.755 110.704C189.58 108.667 186.656 110.613 184.479 111.633L183.68 112.003C180.873 113.309 177.681 114.845 174.564 113.871C173.084 113.409 172.144 111.888 172.566 110.351C172.942 108.984 174.592 107.835 176.021 108.328L176.085 108.352C177.246 108.796 178.674 108.346 179.873 107.902L180.858 107.532C182.441 106.931 184.032 106.258 185.755 106.274Z" fill="black"/>
</svg>
