<svg width="20" height="20" viewBox="0 0 20 20" fill="none" xmlns="http://www.w3.org/2000/svg">
<path d="M6.06675 9.21666C7.04884 11.29 8.71836 12.9596 10.7917 13.9417L12.6834 12.5C12.7888 12.3907 12.9237 12.3144 13.0716 12.2804C13.2196 12.2464 13.3742 12.2561 13.5167 12.3083C14.423 12.6066 15.371 12.7585 16.3251 12.7583C16.529 12.7702 16.7214 12.8566 16.8658 13.001C17.0102 13.1454 17.0965 13.3378 17.1084 13.5417V16.2917C17.0965 16.4955 17.0102 16.6879 16.8658 16.8323C16.7214 16.9767 16.529 17.0631 16.3251 17.075C14.5658 17.0794 12.823 16.7367 11.1965 16.0665C9.56987 15.3963 8.09149 14.4118 6.84597 13.1693C5.60046 11.9269 4.61228 10.451 3.93804 8.82609C3.2638 7.20119 2.91674 5.45923 2.91675 3.69999C2.92865 3.49612 3.01501 3.30372 3.15941 3.15932C3.30381 3.01491 3.49621 2.92856 3.70008 2.91666H6.45841C6.66228 2.92856 6.85468 3.01491 6.99909 3.15932C7.14349 3.30372 7.22984 3.49612 7.24175 3.69999C7.24095 4.65411 7.39288 5.60222 7.69175 6.50832C7.73701 6.65232 7.74231 6.8059 7.70708 6.95267C7.67186 7.09944 7.59743 7.23389 7.49175 7.34166L6.06675 9.21666Z" stroke="black" stroke-linecap="round" stroke-linejoin="round"/>
</svg>
