<svg width="17" height="17" viewBox="0 0 17 17" fill="none" xmlns="http://www.w3.org/2000/svg">
<path d="M15.7983 1.20356C15.4175 0.820632 14.9646 0.517071 14.4657 0.310466C13.9668 0.103861 13.4318 -0.00167999 12.8918 -4.22638e-05C12.352 -0.00152993 11.8173 0.104084 11.3186 0.310685C10.8199 0.517286 10.3671 0.820768 9.98652 1.20356L6.87099 4.31909C6.43121 4.76158 6.09791 5.29836 5.89632 5.88876C5.30106 6.09006 4.76024 6.42592 4.31589 6.87022L1.20092 9.98576C-0.40161 11.5877 -0.40161 14.1944 1.20092 15.7964C1.58159 16.1792 2.03445 16.4827 2.53325 16.6893C3.03205 16.8959 3.5669 17.0015 4.10679 17C4.64659 17.0014 5.18132 16.8958 5.68003 16.6892C6.17873 16.4826 6.63149 16.1791 7.01209 15.7964L10.1276 12.6808C10.5666 12.2386 10.8992 11.7022 11.1 11.1123C11.6962 10.911 12.2379 10.5747 12.6827 10.1297L15.7977 7.01416C17.4002 5.41219 17.4002 2.80552 15.7977 1.20356H15.7983ZM9.72642 12.2802L6.61089 15.3957C6.28283 15.7256 5.89259 15.9872 5.46277 16.1653C5.03294 16.3434 4.57205 16.4345 4.10679 16.4333C3.16046 16.4333 2.27079 16.065 1.60212 15.3957C0.938978 14.7308 0.566572 13.8301 0.566572 12.8911C0.566572 11.952 0.938978 11.0513 1.60212 10.3864L4.71709 7.27086C5.04522 6.94087 5.43555 6.67925 5.86548 6.50115C6.29541 6.32305 6.7564 6.23201 7.22176 6.23329C8.16809 6.23329 9.05776 6.60162 9.72642 7.27086C10.3037 7.85265 10.66 8.61756 10.734 9.43382C10.56 9.50833 10.3777 9.56179 10.1911 9.59306C10.1461 8.86874 9.83846 8.1857 9.32579 7.67206C8.76732 7.11487 8.01065 6.80195 7.22176 6.80195C6.43287 6.80195 5.67619 7.11487 5.11772 7.67206L2.00276 10.787C1.44557 11.3455 1.13265 12.1022 1.13265 12.8911C1.13265 13.6799 1.44557 14.4366 2.00276 14.9951C2.27886 15.2716 2.60686 15.4908 2.96794 15.6402C3.32901 15.7896 3.71604 15.8661 4.10679 15.8655C4.86839 15.8655 5.63056 15.5754 6.21082 14.9951L9.32579 11.8796C9.49126 11.7147 9.62896 11.5282 9.75022 11.3322L9.77686 11.3333C9.99672 11.3333 10.2132 11.3118 10.4257 11.2778C10.2527 11.6501 10.0163 11.9894 9.72699 12.2808L9.72642 12.2802ZM11.27 9.10176C11.132 8.25684 10.7322 7.47656 10.1271 6.87093C9.52197 6.26531 8.74203 5.86488 7.89722 5.72612C7.95389 5.65586 8.01056 5.58502 8.07459 5.52099L11.1907 2.40546C11.6457 1.95042 12.2509 1.69996 12.8941 1.69996C13.5373 1.69996 14.1425 1.95042 14.5981 2.40546C15.049 2.85766 15.3023 3.47023 15.3023 4.10886C15.3023 4.74749 15.049 5.36006 14.5981 5.81226L11.4825 8.92779C11.4168 8.99352 11.342 9.04509 11.2706 9.10176H11.27ZM9.61196 9.61742C9.03268 9.58219 8.48611 9.33701 8.07459 8.92779C7.66686 8.51302 7.42291 7.96475 7.38779 7.38419C7.94822 7.42216 8.49789 7.64486 8.92459 8.07212C9.3333 8.48675 9.57756 9.03567 9.61196 9.61686V9.61742ZM5.72802 7.90042C5.86672 8.74469 6.26643 9.52428 6.87099 10.1297C7.47583 10.7363 8.25646 11.1368 9.10196 11.2744C9.04586 11.3446 8.98919 11.4149 8.92459 11.4789L5.80962 14.5945C5.3575 15.0456 4.7449 15.2989 4.10622 15.2989C3.46755 15.2989 2.85495 15.0456 2.40282 14.5945C1.95173 14.1423 1.69839 13.5297 1.69839 12.8911C1.69839 12.2524 1.95173 11.6398 2.40282 11.1877L5.51779 8.07212C5.58352 8.00696 5.65719 7.95709 5.72802 7.90099V7.90042ZM15.3965 6.61409L12.2815 9.72906C11.9535 10.059 11.5632 10.3206 11.1334 10.4987C10.7036 10.6768 10.2427 10.7678 9.77742 10.7666C8.83109 10.7666 7.94142 10.3983 7.27276 9.72906C6.69628 9.14824 6.33987 8.38493 6.26466 7.57006C6.44089 7.49412 6.62336 7.43972 6.81036 7.40742C6.85568 8.13154 7.16306 8.81439 7.67509 9.32842C8.23722 9.89056 8.98409 10.2 9.77912 10.2C10.5742 10.2 11.321 9.89056 11.8832 9.32842L14.9987 6.21289C15.5557 5.65435 15.8686 4.8977 15.8686 4.10886C15.8686 3.32001 15.5557 2.56336 14.9987 2.00482C14.436 1.44269 13.6891 1.13329 12.8935 1.13329C12.0979 1.13329 11.3522 1.44269 10.7895 2.00482L7.67396 5.12036C7.50906 5.28526 7.37136 5.47169 7.25066 5.66832L7.22232 5.66662C7.00132 5.66662 6.78429 5.68872 6.57066 5.72216C6.74388 5.34928 6.98134 5.00977 7.27219 4.71916L10.3877 1.60419C10.7159 1.2742 11.1062 1.01258 11.5361 0.834482C11.966 0.656381 12.427 0.565338 12.8924 0.566624C13.8387 0.566624 14.7284 0.934958 15.3971 1.60419C16.0602 2.26907 16.4326 3.1698 16.4326 4.10886C16.4326 5.04791 16.0602 5.94864 15.3971 6.61352L15.3965 6.61409Z" fill="black"/>
</svg>
